<svg width="14" height="14" viewBox="0 0 14 14" fill="none" xmlns="http://www.w3.org/2000/svg">
<path d="M7 14C3.15519 13.9494 0.050676 10.8448 0 7C0.050676 3.1552 3.15519 0.050676 7 0C10.8448 0.050676 13.9494 3.1552 14 7C13.9494 10.8448 10.8448 13.9494 7 14ZM7 1.55556C4.00958 1.59492 1.59492 4.00958 1.55556 7C1.59492 9.9904 4.00958 12.4051 7 12.4444C9.9904 12.4051 12.4051 9.9904 12.4444 7C12.4051 4.00958 9.9904 1.59492 7 1.55556ZM10.8889 7.77777H6.22222V3.11111H7.77777V6.22222H10.8889V7.77777Z" fill="#2E3A59"/>
</svg>
